<svg width="24" height="24" viewBox="0 0 24 24" fill="none" xmlns="http://www.w3.org/2000/svg">
<path d="M11.7071 8.29289C11.3166 7.90237 10.6834 7.90237 10.2929 8.29289C9.90237 8.68342 9.90237 9.31658 10.2929 9.70711L11.7071 8.29289ZM14 12L14.7071 12.7071C15.0976 12.3166 15.0976 11.6834 14.7071 11.2929L14 12ZM10.2929 14.2929C9.90237 14.6834 9.90237 15.3166 10.2929 15.7071C10.6834 16.0976 11.3166 16.0976 11.7071 15.7071L10.2929 14.2929ZM10.2929 9.70711L13.2929 12.7071L14.7071 11.2929L11.7071 8.29289L10.2929 9.70711ZM13.2929 11.2929L10.2929 14.2929L11.7071 15.7071L14.7071 12.7071L13.2929 11.2929Z" fill="#14181F"/>
</svg>
